<svg width="138" height="481" viewBox="0 0 138 481" fill="none" xmlns="http://www.w3.org/2000/svg">
<path fill-rule="evenodd" clip-rule="evenodd" d="M0 0.480469H137.2V480.48H0V0.480469Z" fill="#5A61ED"/>
<mask id="mask0" mask-type="alpha" maskUnits="userSpaceOnUse" x="0" y="0" width="138" height="480">
<path fill-rule="evenodd" clip-rule="evenodd" d="M0 0.480469H137.2V480.48H0V0.480469Z" fill="white"/>
</mask>
<g mask="url(#mask0)">
</g>
<path d="M46.043 313.835C45.749 312.594 45.553 311.254 45.455 309.817C45.357 308.38 45.308 306.959 45.308 305.554C45.308 304.051 45.455 302.532 45.749 300.997C46.043 299.429 46.582 298.008 47.366 296.734C48.15 295.46 49.228 294.431 50.6 293.647C51.972 292.83 53.7197 292.422 55.843 292.422C57.9337 292.422 59.6977 292.798 61.135 293.549C62.5723 294.3 63.7483 295.297 64.663 296.538C65.545 297.779 66.182 299.2 66.574 300.801C66.966 302.402 67.162 304.051 67.162 305.75C67.162 305.913 67.162 306.191 67.162 306.583C67.162 306.942 67.162 307.334 67.162 307.759C67.1293 308.151 67.0967 308.543 67.064 308.935C67.0313 309.327 66.9987 309.605 66.966 309.768H80V313.835H46.043ZM48.836 305.456C48.836 306.305 48.8523 307.122 48.885 307.906C48.9177 308.69 48.9993 309.311 49.13 309.768H63.34C63.4053 309.605 63.4543 309.343 63.487 308.984C63.487 308.625 63.5033 308.249 63.536 307.857C63.536 307.465 63.536 307.089 63.536 306.73C63.536 306.371 63.536 306.109 63.536 305.946C63.536 304.835 63.438 303.741 63.242 302.663C63.0133 301.552 62.6213 300.556 62.066 299.674C61.5107 298.792 60.7267 298.09 59.714 297.567C58.7013 297.012 57.411 296.734 55.843 296.734C54.5037 296.734 53.393 296.995 52.511 297.518C51.5963 298.008 50.8777 298.678 50.355 299.527C49.7997 300.344 49.4077 301.275 49.179 302.32C48.9503 303.365 48.836 304.411 48.836 305.456ZM78.04 270.241C78.824 271.221 79.4447 272.463 79.902 273.965C80.3593 275.435 80.588 277.003 80.588 278.669C80.588 280.531 80.294 282.148 79.706 283.52C79.0853 284.892 78.2197 286.019 77.109 286.901C75.9657 287.783 74.61 288.437 73.042 288.861C71.474 289.286 69.71 289.498 67.75 289.498C63.5687 289.498 60.3837 288.567 58.195 286.705C56.0063 284.843 54.912 282.181 54.912 278.718C54.912 277.608 55.0427 276.497 55.304 275.386C55.5327 274.276 55.99 273.279 56.676 272.397C57.362 271.515 58.342 270.797 59.616 270.241C60.8573 269.686 62.507 269.408 64.565 269.408C65.643 269.408 66.8353 269.506 68.142 269.702V285.431C69.5793 285.431 70.8533 285.284 71.964 284.99C73.0747 284.696 74.022 284.239 74.806 283.618C75.5573 282.998 76.1453 282.197 76.57 281.217C76.962 280.205 77.158 278.98 77.158 277.542C77.158 276.432 76.962 275.321 76.57 274.21C76.178 273.1 75.7207 272.267 75.198 271.711L78.04 270.241ZM58.342 278.669C58.342 280.597 58.8483 282.148 59.861 283.324C60.8737 284.468 62.605 285.154 65.055 285.382V273.23C62.5723 273.23 60.841 273.704 59.861 274.651C58.8483 275.599 58.342 276.938 58.342 278.669ZM58.93 248.436V258.824H80V262.744H55.5V248.436H58.93ZM65.496 228.868L62.458 228.721V228.868L65.594 230.877L80 241.902V244.156H55.5V240.236H70.445L73.336 240.383V240.187L70.298 238.276L55.5 227.251V224.948H80V228.868H65.496ZM78.383 200.198C79.1017 201.178 79.6407 202.337 80 203.677C80.392 205.016 80.588 206.421 80.588 207.891C80.588 209.785 80.294 211.386 79.706 212.693C79.0853 213.999 78.2197 215.077 77.109 215.927C75.9657 216.743 74.61 217.348 73.042 217.74C71.4413 218.099 69.6773 218.279 67.75 218.279C63.6013 218.279 60.4327 217.364 58.244 215.535C56.0227 213.705 54.912 211.076 54.912 207.646C54.912 206.078 55.0427 204.755 55.304 203.677C55.5327 202.566 55.8757 201.57 56.333 200.688L59.714 201.815C59.2893 202.566 58.9627 203.399 58.734 204.314C58.4727 205.228 58.342 206.208 58.342 207.254C58.342 211.892 61.478 214.212 67.75 214.212C68.9913 214.212 70.1837 214.097 71.327 213.869C72.4377 213.607 73.434 213.199 74.316 212.644C75.1653 212.056 75.8513 211.304 76.374 210.39C76.8967 209.442 77.158 208.283 77.158 206.911C77.158 205.735 76.9783 204.689 76.619 203.775C76.2597 202.827 75.8513 202.06 75.394 201.472L78.383 200.198ZM58.93 179.434V187.127H80V191.047H58.93V198.74H55.5V179.434H58.93ZM55.5 175.041L55.5 172.346L58.44 171.611V171.415C57.2967 170.664 56.431 169.7 55.843 168.524C55.2223 167.316 54.912 165.944 54.912 164.408C54.912 161.142 55.8757 158.708 57.803 157.107C59.7303 155.507 62.8827 154.706 67.26 154.706C69.318 154.706 71.18 154.984 72.846 155.539C74.4793 156.062 75.8677 156.813 77.011 157.793C78.1543 158.773 79.0363 159.966 79.657 161.37C80.2777 162.742 80.588 164.278 80.588 165.976C80.588 167.185 80.5063 168.149 80.343 168.867C80.2123 169.553 79.9673 170.305 79.608 171.121H89.8V175.041H55.5ZM58.342 165.143C58.342 166.809 58.783 168.132 59.665 169.112C60.5143 170.06 61.821 170.729 63.585 171.121H75.737C76.1943 170.533 76.5537 169.864 76.815 169.112C77.0437 168.361 77.158 167.365 77.158 166.123C77.158 163.869 76.325 162.089 74.659 160.782C72.9603 159.443 70.4777 158.773 67.211 158.773C65.8717 158.773 64.663 158.888 63.585 159.116C62.4743 159.345 61.5433 159.721 60.792 160.243C60.008 160.733 59.4037 161.387 58.979 162.203C58.5543 162.987 58.342 163.967 58.342 165.143ZM57.313 148.424C56.5617 147.182 56.0063 145.745 55.647 144.112C55.2877 142.446 55.108 140.714 55.108 138.918C55.108 137.219 55.3367 135.863 55.794 134.851C56.2513 133.805 56.8557 133.021 57.607 132.499C58.3257 131.943 59.126 131.584 60.008 131.421C60.89 131.225 61.772 131.127 62.654 131.127C64.614 131.127 66.525 131.176 68.387 131.274C70.249 131.372 72.013 131.421 73.679 131.421C74.8877 131.421 76.031 131.372 77.109 131.274C78.187 131.176 79.1833 130.996 80.098 130.735V133.626L76.668 134.655V134.9C77.1253 135.194 77.5827 135.569 78.04 136.027C78.4647 136.451 78.8567 136.974 79.216 137.595C79.5427 138.215 79.8203 138.934 80.049 139.751C80.2777 140.567 80.392 141.498 80.392 142.544C80.392 143.589 80.2287 144.569 79.902 145.484C79.5753 146.366 79.118 147.133 78.53 147.787C77.9093 148.44 77.1743 148.963 76.325 149.355C75.4757 149.714 74.512 149.894 73.434 149.894C71.9967 149.894 70.8043 149.6 69.857 149.012C68.877 148.424 68.1093 147.607 67.554 146.562C66.966 145.484 66.5577 144.21 66.329 142.74C66.0677 141.237 65.937 139.587 65.937 137.791C65.937 137.333 65.937 136.892 65.937 136.468C65.937 136.01 65.9697 135.553 66.035 135.096C65.055 134.998 64.173 134.949 63.389 134.949C61.5923 134.949 60.3347 135.308 59.616 136.027C58.8973 136.745 58.538 138.052 58.538 139.947C58.538 140.502 58.587 141.106 58.685 141.76C58.7503 142.38 58.8647 143.034 59.028 143.72C59.1587 144.373 59.3383 145.01 59.567 145.631C59.763 146.219 59.9917 146.741 60.253 147.199L57.313 148.424ZM76.962 141.466C76.962 140.551 76.8477 139.734 76.619 139.016C76.3577 138.297 76.0473 137.676 75.688 137.154C75.296 136.631 74.8713 136.206 74.414 135.88C73.9567 135.52 73.5157 135.259 73.091 135.096H69.024C68.9913 135.553 68.975 136.027 68.975 136.517C68.9423 136.974 68.926 137.431 68.926 137.889C68.926 138.901 68.9913 139.898 69.122 140.878C69.22 141.825 69.4323 142.674 69.759 143.426C70.053 144.144 70.4777 144.732 71.033 145.19C71.5557 145.614 72.2253 145.827 73.042 145.827C74.1853 145.827 75.1327 145.418 75.884 144.602C76.6027 143.785 76.962 142.74 76.962 141.466ZM86.223 101.222V103.868L80 104.603V123.223H55.5V119.303H76.57V108.67H55.5V104.75H76.57V101.222H86.223ZM65.496 80.5904L62.458 80.4434V80.5904L65.594 82.5994L80 93.6244V95.8784H55.5V91.9584H70.445L73.336 92.1054V91.9094L70.298 89.9984L55.5 78.9734V76.6704H80V80.5904H65.496ZM69.857 56.4283L70.445 60.2013L80 66.6693V71.4223L71.621 65.5423L69.808 63.5823C69.5467 65.281 68.8607 66.7347 67.75 67.9433C66.6393 69.1193 65.1367 69.7073 63.242 69.7073C61.772 69.7073 60.5143 69.4623 59.469 68.9723C58.4237 68.4497 57.558 67.7147 56.872 66.7673C56.186 65.82 55.696 64.693 55.402 63.3863C55.0753 62.0797 54.912 60.6097 54.912 58.9763C54.912 57.7677 54.9937 56.6407 55.157 55.5953C55.3203 54.55 55.5 53.521 55.696 52.5083H80V56.4283H69.857ZM58.832 56.4283C58.6687 56.853 58.5543 57.3267 58.489 57.8493C58.391 58.372 58.342 58.8293 58.342 59.2213C58.342 61.312 58.7177 62.9127 59.469 64.0233C60.2203 65.1013 61.4127 65.6403 63.046 65.6403C64.516 65.6403 65.6593 65.0687 66.476 63.9253C67.26 62.7493 67.652 61.214 67.652 59.3193C67.652 59.2867 67.652 59.2377 67.652 59.1723C67.652 59.107 67.652 58.9763 67.652 58.7803C67.652 58.5843 67.652 58.3067 67.652 57.9473C67.6193 57.588 67.5867 57.0817 67.554 56.4283H58.832Z" fill="white"/>
</svg>
